<svg xmlns="http://www.w3.org/2000/svg" viewBox="0 0 920 440" width="920" height="440" role="img">
<rect x="0.0" y="0.0" width="920.0" height="440.0" fill="#ffffff" rx="0" opacity="1.0" />
<text x="460.0" y="34.0" font-family="sans-serif" font-size="22" fill="#1f2933" text-anchor="middle" font-weight="700">Numerically stable softmax</text>
<text x="70.0" y="74.0" font-family="sans-serif" font-size="15" fill="#1f2933" text-anchor="start" font-weight="700">A.  Naive exp() overflows</text>
<text x="70.0" y="89.0" font-family="sans-serif" font-size="11" fill="#6b7280" text-anchor="start" font-weight="normal">value of e^(logit), log scale</text>
<line x1="70.0" y1="90.0" x2="70.0" y2="340.0" stroke="#1f2933" stroke-width="1.5" />
<line x1="70.0" y1="340.0" x2="410.0" y2="340.0" stroke="#1f2933" stroke-width="1.5" />
<line x1="70.0" y1="340.0" x2="410.0" y2="340.0" stroke="#e5e7eb" stroke-width="1" />
<text x="62.0" y="344.0" font-family="sans-serif" font-size="10" fill="#6b7280" text-anchor="end" font-weight="normal">1e0</text>
<line x1="70.0" y1="277.5" x2="410.0" y2="277.5" stroke="#e5e7eb" stroke-width="1" />
<text x="62.0" y="281.5" font-family="sans-serif" font-size="10" fill="#6b7280" text-anchor="end" font-weight="normal">1e100</text>
<line x1="70.0" y1="215.0" x2="410.0" y2="215.0" stroke="#e5e7eb" stroke-width="1" />
<text x="62.0" y="219.0" font-family="sans-serif" font-size="10" fill="#6b7280" text-anchor="end" font-weight="normal">1e200</text>
<line x1="70.0" y1="152.5" x2="410.0" y2="152.5" stroke="#e5e7eb" stroke-width="1" />
<text x="62.0" y="156.5" font-family="sans-serif" font-size="10" fill="#6b7280" text-anchor="end" font-weight="normal">1e300</text>
<line x1="70.0" y1="90.0" x2="410.0" y2="90.0" stroke="#e5e7eb" stroke-width="1" />
<text x="62.0" y="94.0" font-family="sans-serif" font-size="10" fill="#6b7280" text-anchor="end" font-weight="normal">1e400</text>
<line x1="70.0" y1="340.0" x2="70.0" y2="345.0" stroke="#1f2933" stroke-width="1" />
<text x="70.0" y="359.0" font-family="sans-serif" font-size="10" fill="#6b7280" text-anchor="middle" font-weight="normal">0</text>
<line x1="155.0" y1="340.0" x2="155.0" y2="345.0" stroke="#1f2933" stroke-width="1" />
<text x="155.0" y="359.0" font-family="sans-serif" font-size="10" fill="#6b7280" text-anchor="middle" font-weight="normal">250</text>
<line x1="240.0" y1="340.0" x2="240.0" y2="345.0" stroke="#1f2933" stroke-width="1" />
<text x="240.0" y="359.0" font-family="sans-serif" font-size="10" fill="#6b7280" text-anchor="middle" font-weight="normal">500</text>
<line x1="325.0" y1="340.0" x2="325.0" y2="345.0" stroke="#1f2933" stroke-width="1" />
<text x="325.0" y="359.0" font-family="sans-serif" font-size="10" fill="#6b7280" text-anchor="middle" font-weight="normal">750</text>
<line x1="410.0" y1="340.0" x2="410.0" y2="345.0" stroke="#1f2933" stroke-width="1" />
<text x="410.0" y="359.0" font-family="sans-serif" font-size="10" fill="#6b7280" text-anchor="middle" font-weight="normal">1000</text>
<text x="240.0" y="378.0" font-family="sans-serif" font-size="12" fill="#1f2933" text-anchor="middle" font-weight="normal">logit value</text>
<line x1="70.0" y1="147.3" x2="410.0" y2="147.3" stroke="#dc2626" stroke-width="1.5" stroke-dasharray="6 4" />
<text x="76.0" y="141.3" font-family="sans-serif" font-size="10" fill="#dc2626" text-anchor="start" font-weight="normal">float64 max ≈ 1.8e308</text>
<rect x="311.3" y="90.0" width="98.7" height="250.0" fill="#dc2626" rx="0" opacity="0.08" />
<line x1="311.3" y1="90.0" x2="311.3" y2="340.0" stroke="#dc2626" stroke-width="1" stroke-dasharray="3 3" />
<path d="M 70.0 340.0 L 311.3 147.3" stroke="#2563eb" stroke-width="3" fill="none" stroke-linecap="round" />
<path d="M 311.3 147.3 L 365.6 96.0" stroke="#dc2626" stroke-width="2.5" fill="none" stroke-dasharray="5 4" />
<text x="360.7" y="120.0" font-family="sans-serif" font-size="13" fill="#dc2626" text-anchor="middle" font-weight="700">= inf</text>
<text x="360.7" y="138.0" font-family="sans-serif" font-size="12" fill="#dc2626" text-anchor="middle" font-weight="normal">→ NaN</text>
<text x="545.0" y="74.0" font-family="sans-serif" font-size="15" fill="#1f2933" text-anchor="start" font-weight="700">B.  Subtracting max is free</text>
<text x="545.0" y="89.0" font-family="sans-serif" font-size="11" fill="#6b7280" text-anchor="start" font-weight="normal">softmax(x) = softmax(x − max x)</text>
<line x1="545.0" y1="90.0" x2="545.0" y2="340.0" stroke="#1f2933" stroke-width="1.5" />
<line x1="545.0" y1="340.0" x2="865.0" y2="340.0" stroke="#1f2933" stroke-width="1.5" />
<line x1="545.0" y1="340.0" x2="865.0" y2="340.0" stroke="#e5e7eb" stroke-width="1" />
<text x="537.0" y="344.0" font-family="sans-serif" font-size="10" fill="#6b7280" text-anchor="end" font-weight="normal">0.00</text>
<line x1="545.0" y1="277.5" x2="865.0" y2="277.5" stroke="#e5e7eb" stroke-width="1" />
<text x="537.0" y="281.5" font-family="sans-serif" font-size="10" fill="#6b7280" text-anchor="end" font-weight="normal">0.25</text>
<line x1="545.0" y1="215.0" x2="865.0" y2="215.0" stroke="#e5e7eb" stroke-width="1" />
<text x="537.0" y="219.0" font-family="sans-serif" font-size="10" fill="#6b7280" text-anchor="end" font-weight="normal">0.50</text>
<line x1="545.0" y1="152.5" x2="865.0" y2="152.5" stroke="#e5e7eb" stroke-width="1" />
<text x="537.0" y="156.5" font-family="sans-serif" font-size="10" fill="#6b7280" text-anchor="end" font-weight="normal">0.75</text>
<line x1="545.0" y1="90.0" x2="865.0" y2="90.0" stroke="#e5e7eb" stroke-width="1" />
<text x="537.0" y="94.0" font-family="sans-serif" font-size="10" fill="#6b7280" text-anchor="end" font-weight="normal">1.00</text>
<text x="499.0" y="215.0" font-family="sans-serif" font-size="12" fill="#1f2933" text-anchor="middle" transform="rotate(-90 499.0 215.0)">probability</text>
<rect x="575.0" y="175.2" width="26.0" height="164.8" fill="#2563eb" rx="3" opacity="1.0" />
<text x="588.0" y="169.2" font-family="sans-serif" font-size="10" fill="#1f2933" text-anchor="middle" font-weight="600">0.659</text>
<text x="588.0" y="355.0" font-family="sans-serif" font-size="10" fill="#6b7280" text-anchor="middle" font-weight="normal">cat</text>
<rect x="609.0" y="279.4" width="26.0" height="60.6" fill="#7c3aed" rx="3" opacity="1.0" />
<text x="622.0" y="273.4" font-family="sans-serif" font-size="10" fill="#1f2933" text-anchor="middle" font-weight="600">0.242</text>
<text x="622.0" y="355.0" font-family="sans-serif" font-size="10" fill="#6b7280" text-anchor="middle" font-weight="normal">dog</text>
<rect x="643.0" y="315.4" width="26.0" height="24.6" fill="#0891b2" rx="3" opacity="1.0" />
<text x="656.0" y="309.4" font-family="sans-serif" font-size="10" fill="#1f2933" text-anchor="middle" font-weight="600">0.099</text>
<text x="656.0" y="355.0" font-family="sans-serif" font-size="10" fill="#6b7280" text-anchor="middle" font-weight="normal">plane</text>
<text x="618.0" y="373.0" font-family="sans-serif" font-size="11" fill="#1f2933" text-anchor="middle" font-weight="600">raw  [2, 1, 0.1]</text>
<rect x="735.0" y="175.2" width="26.0" height="164.8" fill="#2563eb" rx="3" opacity="1.0" />
<text x="748.0" y="169.2" font-family="sans-serif" font-size="10" fill="#1f2933" text-anchor="middle" font-weight="600">0.659</text>
<text x="748.0" y="355.0" font-family="sans-serif" font-size="10" fill="#6b7280" text-anchor="middle" font-weight="normal">cat</text>
<rect x="769.0" y="279.4" width="26.0" height="60.6" fill="#7c3aed" rx="3" opacity="1.0" />
<text x="782.0" y="273.4" font-family="sans-serif" font-size="10" fill="#1f2933" text-anchor="middle" font-weight="600">0.242</text>
<text x="782.0" y="355.0" font-family="sans-serif" font-size="10" fill="#6b7280" text-anchor="middle" font-weight="normal">dog</text>
<rect x="803.0" y="315.4" width="26.0" height="24.6" fill="#0891b2" rx="3" opacity="1.0" />
<text x="816.0" y="309.4" font-family="sans-serif" font-size="10" fill="#1f2933" text-anchor="middle" font-weight="600">0.099</text>
<text x="816.0" y="355.0" font-family="sans-serif" font-size="10" fill="#6b7280" text-anchor="middle" font-weight="normal">plane</text>
<text x="778.0" y="373.0" font-family="sans-serif" font-size="11" fill="#1f2933" text-anchor="middle" font-weight="600">shifted  [0, -1, -1.9]</text>
<line x1="618.0" y1="116.0" x2="778.0" y2="116.0" stroke="#059669" stroke-width="1.5" stroke-dasharray="4 3" />
<text x="698.0" y="110.0" font-family="sans-serif" font-size="12" fill="#059669" text-anchor="middle" font-weight="700">identical output</text>
</svg>